<svg version="1.2" xmlns="http://www.w3.org/2000/svg" viewBox="0 0 700 500" width="700" height="500">
	<title>9264820</title>
	<style>
		.s0 { fill: #f7f2fa } 
		.s1 { fill: #dfdfeb } 
		.s2 { fill: #7e9e6e } 
		.s3 { fill: none;stroke: #000000;stroke-linecap: round;stroke-miterlimit:10 } 
		.s4 { fill: #000000 } 
		.s5 { fill: #4d3a8e } 
		.s6 { fill: #6650a4 } 
		.s7 { fill: none;stroke: #000000;stroke-linejoin: round } 
		.s8 { fill: #db9c7f } 
		.s9 { fill: #cc9fe3 } 
		.s10 { fill: none;stroke: #424242;stroke-miterlimit:10 } 
		.s11 { fill: none;stroke: #424242;stroke-linecap: round;stroke-miterlimit:10 } 
		.s12 { fill: #ffffff } 
		.s13 { fill: none;stroke: #1a1c30;stroke-linecap: round;stroke-linejoin: round;stroke-width: .8 } 
		.s14 { fill: #333969 } 
		.s15 { fill: #7584f1 } 
		.s16 { fill: #d3ddf7 } 
		.s17 { fill: none;stroke: #000000;stroke-linecap: round;stroke-linejoin: round } 
	</style>
	<g id="BACKGROUND">
		<path id="&lt;Path&gt;" class="s0" d="m521.8 220.8c0 91.6-104.2 165.9-232.8 165.9-128.5 0-232.7-74.3-232.7-165.9 0-91.7 104.2-165.9 232.7-165.9 128.6 0 232.8 74.2 232.8 165.9z"/>
	</g>
	<g id="OBJECTS">
		<path id="&lt;Path&gt;" class="s1" d="m646.5 439.7c0 8.2-47.5 14.8-106.2 14.8-58.7 0-106.3-6.6-106.3-14.8 0-8.1 47.6-14.7 106.3-14.7 58.7 0 106.2 6.6 106.2 14.7z"/>
		<path id="&lt;Path&gt;" class="s1" d="m509.5 446.8c0 9-85.9 16.4-191.9 16.4-106 0-192-7.4-192-16.4 0-9 86-16.3 192-16.3 106 0 191.9 7.3 191.9 16.3z"/>
		<g id="&lt;Group&gt;">
			<path id="&lt;Path&gt;" class="s2" d="m354.3 157.1c0 0-3.6 20.6-29.5 47.2 0 0-2.8-3.6 2.1-18.3 5-14.6 25.9-33.9 27.4-28.9z"/>
			<path id="&lt;Path&gt;" class="s3" d="m354.3 157.1c0 0-23.3 16.7-29.5 47.2 0 0-1.1 10.4 2.4 19.5"/>
			<path id="&lt;Path&gt;" class="s2" d="m291.7 173.8c0 0 6.5-5-4.7-17.4-10.7-11.7-22-22.2-44.1-26.1 0 0 6.7 29.9 21.1 37.1 14.4 7.1 27.7 6.4 27.7 6.4z"/>
			<path id="&lt;Path&gt;" class="s2" d="m238 195.8c0 0 23.1 5 62.2-8.1 0 0-2.4-4-19.9-5.4-17.5-1.3-46.8 10.1-42.3 13.5z"/>
			<path id="&lt;Path&gt;" class="s3" d="m238 195.8c0 0 27.7-14.7 62.2-8.1 0 0 3.5 0.9 7.2 5.8"/>
			<path id="&lt;Path&gt;" class="s2" d="m257.2 216.6c0 0 24.6 16.3 63.7 3.2 0 0-7.6-13.7-25.1-15.1-17.4-1.3-43.2 8.6-38.6 11.9z"/>
			<path id="&lt;Path&gt;" class="s3" d="m257.2 216.6c0 0 26.5-12.4 63.7 3.2 0 0 4.4 2 8 6.8"/>
			<path id="&lt;Path&gt;" class="s4" d="m340.7 137.6c0 0 7.2-0.9-10.5 15.5-16.8 15.6-14.7 15.7-14.7 15.7 0 0 6.4-23.2 25.2-31.2z"/>
			<path id="&lt;Path&gt;" class="s2" d="m303.3 176.6c0 0 5.5 2.1 15.3-6.9 9.8-9 13.4-29 22.1-32.1 0 0-21.7 7-37.4 39z"/>
			<path id="&lt;Path&gt;" class="s3" d="m339 245.6c-11.1-22.3-26.4-47.6-47.3-71.8 0 0-5.2-6.8-23-24.2-17.8-17.4-25.8-19.3-25.8-19.3"/>
			<path id="&lt;Path&gt;" class="s3" d="m338.1 138.6c0 0-20.6 9-34.8 38-3.4 7.1 0.7 12.6 4.1 16.9"/>
		</g>
		<g id="&lt;Group&gt;">
			<path id="&lt;Path&gt;" class="s2" d="m525.9 379.2c0 0-17.2 12.7-56.9 3.3 0 0 0.1-6.3 14.3-12.4 14.3-6.2 44.8 3.2 42.6 9.1z"/>
			<path id="&lt;Path&gt;" class="s3" d="m524.6 378c0 0-27.1-9.1-55.4 3.8 0 0-9.2 5.2-14.4 13.4"/>
			<path id="&lt;Path&gt;" class="s2" d="m468.5 351.2c0 0 7.8 2.4 11.2-14 3.3-15.5 5.2-30.8-4.7-51 0 0-20.3 23-17.6 38.8 2.7 15.9 11.1 26.2 11.1 26.2z"/>
			<path id="&lt;Path&gt;" class="s4" d="m526.8 357.3c0 0 6.1 4.2-18.1 4.8-22.9 0.7-21.4 2.2-21.4 2.2 0 0 20.1-13.3 39.5-7z"/>
			<path id="&lt;Path&gt;" class="s2" d="m473 362.1c0 0 2.7 5.2 16 4.9 13.3-0.3 29.3-13 37.8-9.7 0 0-20.9-8.9-53.8 4.8z"/>
			<path id="&lt;Path&gt;" class="s3" d="m438.1 431.7c11.6-22.1 23-49.4 30.4-80.5 0 0 2.4-8.1 6-32.7 3.7-24.7 0.5-32.3 0.5-32.3"/>
			<path id="&lt;Path&gt;" class="s3" d="m524.2 356.5c0 0-21.4-6.8-51.2 5.6-7.2 3.1-9.3 7.8-12.3 16.7"/>
		</g>
		<g id="&lt;Group&gt;">
			<path id="&lt;Path&gt;" class="s5" d="m251.6 232.3c-5.6 0-11-1.9-15.2-5.5l-11.9-9.9c-4.3-3.6-9.3-5.5-14.5-5.5h-58.9c-5.4 0-9.7 4.4-9.7 9.7v11.2 202c0 9.2 7.5 16.7 16.7 16.7h293.6c7.1 0 12.9-5.8 12.9-13v-192.7c0-7.2-5.8-13-12.9-13z"/>
			<path id="&lt;Path&gt;" class="s6" d="m464.6 439.1c0 0-19.9-37.5-21.9-41.8l-54.6-111.2c-1.4-3-4.4-4.9-7.6-4.9h-202.9c-7.4 0-18.1-3.8-23.7-8.6l-8.2-6.8c-4.3-3.5-9.4-5.5-14.6-5.5h-56c-6 0-10 6.1-7.7 11.6l67.7 163.9c3.8 9.2 12.8 15.2 22.7 15.2h303.2c2 0 3.8-1.7 3.8-3.7z"/>
			<path id="&lt;Path&gt;" class="s7" d="m382.1 291.8l80.1 155.8"/>
			<path id="&lt;Path&gt;" class="s7" d="m349.1 318.7h-69c-1.9 0-3.6-1-4.7-2.6-2.3-3.6 0.3-8.3 4.7-8.3h69c1.9 0 3.6 1 4.6 2.5 2.4 3.6-0.3 8.4-4.6 8.4z"/>
			<g id="&lt;Group&gt;">
			</g>
		</g>
		<g id="&lt;Group&gt;">
			<g id="&lt;Group&gt;">
				<path id="&lt;Path&gt;" class="s8" d="m524.4 232.4c1.3-5.5-4.7-12.5-10.3-11.4-4.5 0.9-6.8 2-7.5 2.2-1.5 0.5-12.2-0.2-13.4 1.6-0.9 1.3 4.7 2.8 8.3 3.1 0.7 0.1 0.9 1.1 0.3 1.5-3.5 2.1-10.5 6.6-11.1 7.7-0.8 1.4-4.4 7.1-3.4 7.8 1 0.6 4.1-2.3 6.1-4.3 2-2 7.9-3.7 7.9-3.7 0 0-10.2 10.2-11.6 13.1-2 4.2 3.8 2.4 3.8 2.4-0.9 2.4 3.9 1.8 5 0.9 2.3-1.8 9.1-10.1 9.2-9.2 0 0.8-7.1 9.9-6.4 12 0.7 2.1 3.6-0.5 5.3-2.8 1.6-2.2 6.5-8.4 6.5-8.4 0 0 5.6-4.1 10.2-11.1 0.1-0.1 1.1-1.3 1.1-1.4z"/>
				<path id="&lt;Path&gt;" class="s3" d="m493.8 252.1l9.7-11.6"/>
			</g>
			<path id="&lt;Path&gt;" fill-rule="evenodd" class="s9" d="m451.1 199.5l35.1-21.9q0.3-0.2 0.6-0.5l11.5-11.9c2.6-2.2 6.4-1.6 8.3 1.1l5.7 8.5c1.2 1.8 1.2 4.2 0.1 6l-8.2 13.2c-0.6 1-1.4 1.7-2.5 2.2-6.5 2.8-31.5 13.4-46.5 17.6-3.7 1-7.3-2-6.9-5.8l0.3-4.3c0.2-1.7 1.1-3.3 2.5-4.2z"/>
			<path id="&lt;Path&gt;" class="s4" d="m531.9 418.1l-1.9 12.6c0 0-34.7 13.3-31.5 13.5 3.2 0.2 53.1-2.7 53.1-2.7l-2.9-22.9z"/>
			<path id="&lt;Path&gt;" class="s10" d="m541.5 214.2c0 0 2.8 26.7 4.9 28.1 2.1 1.3 4.8 2 4.8 2l-4.5-30.4z"/>
			<path id="&lt;Path&gt;" class="s4" d="m596.4 195.9c0 0 14.1 28.7 10 44.7l-78.1-10.8 1.7-29.8z"/>
			<path id="&lt;Path&gt;" class="s11" d="m598.5 201.7c0 0-11 20.5-32.1 22.1"/>
			<path id="&lt;Path&gt;" class="s11" d="m580.9 219.4c0 0 4.3 13.3 16.7 13.5"/>
			<path id="&lt;Path&gt;" fill-rule="evenodd" class="s4" d="m528.3 229.8c0 0-20.9 74.5-21.4 98.5l15.3 92.3c0 0 14.5 7.2 29.7 1.4 0.6-0.3-7.7-47.9-8.3-97l43.7-91.3z"/>
			<path id="&lt;Path&gt;" class="s4" d="m606.7 237.4l-3 89.9 34.3 93.9c0 0-14.3 12.2-32.5 1.1l-37.3-89.4 3.8-65.1-16.3-9.9-2.4-28.1z"/>
			<path id="&lt;Path&gt;" class="s12" d="m546.3 221l16.6 12.5 23.8-26.5-57.8 8.2 14.2 18.7z"/>
			<path id="&lt;Path&gt;" class="s4" d="m613.7 416.5l-3 10.9c0 0-21.9 23.8-18.6 23.8 3.2 0 39.2-14.7 39.2-14.7l-4.6-22.7z"/>
			<path id="&lt;Path&gt;" class="s11" d="m593.6 208.6c0 0 9.5 23.3 2.6 121.1 0 0 24 52.7 36.4 94.3"/>
			<path id="&lt;Path&gt;" class="s11" d="m558.7 260.3l-23.8 66.5 10.2 97.2"/>
			<g id="&lt;Group&gt;">
				<g id="&lt;Group&gt;">
					<path id="&lt;Path&gt;" class="s8" d="m454.5 212.6c0 0 0.5 2.4-4.7 4.1-5.1 1.8-8.2 1.3-8.2 1.3 0 0-11.5-13.7-12.1-14.2-0.5-0.5 0.4-5.7 3.8-7.8 2.1-1.3 10.2 0.8 16.2 2.6 4.2 1.3 6.8 5.5 6.1 9.8-0.3 1.7-0.6 3.3-1.1 4.2z"/>
					<path id="&lt;Path&gt;" class="s8" d="m445 209c0 0-9.4-1.4-13.4-4.7 0 0-6-1.2-7.3-0.4-1.2 0.7-2.3 1.8-5 2.3-2.8 0.4-2-1.4 0.9-4 0.9-0.7 3.1-3.4 5-3.8 2.6-0.4 8.1-2.4 8.1-2.4l11.2 13.4"/>
					<path id="&lt;Path&gt;" class="s8" d="m441.6 218c0 0-3.8 2.4-5.1 2.3-1.4-0.1-2.7-0.9-3-3.1 0 0-7.2 1.3-4.9-4.1 0 0-4.3-0.7-4.4-3.5 0 0-3.9-1.9-3-5 0.8-3 12.9-2.8 12.9-2.8l12.7 6.5z"/>
					<path id="&lt;Path&gt;" class="s13" d="m438.9 218.5c0 0 3.7-3.3 3.5-4.6-0.2-1.3-0.9-2-1.7-1.7-1.2 0.3-5.4 3.5-7.2 5"/>
					<path id="&lt;Path&gt;" class="s13" d="m428.6 213.1c0 0 9.7-1.5 9.8-2.9 0.1-1.5-0.6-3.4-2.6-3-2.4 0.5-9.3 2.2-11.6 2.1"/>
					<path id="&lt;Path&gt;" class="s13" d="m440.7 212.2c0 0 1.7-1.1 1-2.4-0.7-1.2-1.6-1.6-3.7-1.1"/>
					<path id="&lt;Path&gt;" class="s13" d="m424 205.3c0 0 0.5-0.7 1.3-1.4"/>
				</g>
				<path id="&lt;Path&gt;" class="s14" d="m445 223.3l-0.1 0.1c-1.3 0.7-3 0.2-3.7-1.1l-25.3-44.9 4.9-2.7 25.3 44.9c0.7 1.3 0.3 2.9-1.1 3.7z"/>
				<path id="&lt;Path&gt;" class="s14" d="m428.4 184.6l2.1 3.8c0.6 1 0.3 2.3-0.5 2.8l-4.6 2.6c-0.9 0.5-2.1 0-2.7-1l-2.2-3.9"/>
				<path id="&lt;Path&gt;" class="s14" d="m418.6 147.8c-8.7-16.3-19.7-27.5-26.7-28l0.2-1.5-3.6 2.4c-6.3 4.2-2.9 23.3 7.4 42.5 10.4 19.3 23.9 31.4 30.2 27.1l3.4-2.2-1-1.4c2.4-7.4-1.4-23.1-9.9-38.9z"/>
				<path id="&lt;Path&gt;" class="s15" d="m422.3 145.4c10.3 19.2 13.7 38.3 7.4 42.6-6.3 4.2-19.8-7.9-30.1-27.1-10.4-19.3-13.7-38.4-7.5-42.6 6.3-4.3 19.8 7.9 30.2 27.1z"/>
				<path id="&lt;Path&gt;" class="s16" d="m418.8 147.8c8.4 15.6 11.8 30.7 7.4 33.7-4.3 2.9-14.7-7.3-23.2-23-8.4-15.7-11.7-30.8-7.4-33.7 4.4-3 14.8 7.3 23.2 23z"/>
				<path id="&lt;Path&gt;" class="s8" d="m445 209c0 0-9.4-1.4-13.4-4.7 0 0-6-1.2-7.3-0.4-1.2 0.7-2.3 1.8-5 2.3-2.8 0.4-2-1.4 0.9-4 0.9-0.7 3.1-3.4 5-3.8 2.6-0.4 8.1-2.4 8.1-2.4l11.2 13.4"/>
				<path id="&lt;Path&gt;" class="s13" d="m445 209c0 0-9.4-1.4-13.4-4.7 0 0-6-1.2-7.3-0.4-1.2 0.7-2.3 1.8-5 2.3"/>
				<path id="&lt;Path&gt;" class="s14" d="m418.8 147.8c-8.4-15.7-18.8-26-23.2-23q-0.5 0.3-0.9 0.9c5.1 0.3 13.9 9.9 21.2 23.5 7.8 14.4 11.2 28.4 8.3 32.8q1.2 0.1 2-0.5c4.4-3 1-18.1-7.4-33.7z"/>
				<path id="&lt;Path&gt;" class="s12" d="m412.9 141.6c4.5 8.3 6.3 16.4 4 18-2.4 1.5-7.9-3.9-12.4-12.3-4.5-8.3-6.2-16.3-3.9-17.9 2.3-1.6 7.8 3.9 12.3 12.2z"/>
			</g>
			<path id="&lt;Path&gt;" fill-rule="evenodd" class="s9" d="m580.9 168.4l-7-24.8c-2.6-9.1-7-17.6-13-25-10.5-13.1-38-11.9-38-11.9l-21.2 15.3q-0.1 0-0.2 0.1c-12.5 6.9-14.8 17.5-14.4 33.9l0.7 22.1 14.4-13.7 3.6 4.9q0-0.2 0-0.4l1.7 2.7-1.7-2.3c0.5 4.6 2.9 16.2 13.9 21.6l6.3 10-1.6 13.7c59.1 21.5 73.8-20.8 73.8-20.8z"/>
			<path id="&lt;Path&gt;" class="s3" d="m499.1 162.1l7.8 9.5c0 0-1.1 14.5 13.6 19.2"/>
			<path id="&lt;Path&gt;" class="s9" d="m557.9 181.4l-45 39.2c0 0 8.9 12.4 12.9 12.9l53.9-34.3"/>
			<path id="&lt;Path&gt;" class="s3" d="m526.3 208.5c0 0 24.5-27.6 32.9-31.6"/>
			<path id="&lt;Path&gt;" class="s3" d="m546.3 151.6c0 0 1.1 6.1 9 27.9"/>
			<path id="&lt;Path&gt;" class="s3" d="m532.1 229.9c0 0 50.3-32.1 50.8-41.4 0.4-9.4-12.7-52.8-12.7-52.8"/>
			<path id="&lt;Path&gt;" class="s3" d="m537.6 184.5c0 0 12.1 1.1 15.9-9.9"/>
			<path id="&lt;Path&gt;" class="s3" d="m488.5 176.3c0 0 3.3-3.4 6.7 0.4"/>
			<path id="&lt;Path&gt;" class="s12" d="m448.8 198.3l7.2-3.3c0 0 8.7 9.5 5.5 17.6l-8.6 2.6c0 0 4-8.9-4.1-16.9z"/>
			<path id="&lt;Path&gt;" class="s12" d="m515.7 215.6c0 0 9.4 4 16.1 15.5l-7.2 5.5c0 0-8.9-12.7-15-14.7z"/>
			<g id="&lt;Group&gt;">
				<path id="&lt;Path&gt;" class="s12" d="m507.9 105.3l29.5 2.1c0 0 1.1 16.3-16.7 30.6l-8-7.8-4.4 9.5c0 0-6.7-3.8-7.7-14.8l1.5-13.2z"/>
				<path id="&lt;Path&gt;" class="s8" d="m522.9 106.7c1.1 0.9 1.6 2.3 1.3 3.7-0.9 5.3-3.8 18.1-9.5 19.7-7.3 2.1-11.8-12.3-11.8-12.3l3.6-25.1z"/>
				<g id="&lt;Group&gt;">
					<path id="&lt;Path&gt;" class="s4" d="m499.9 112.7l-0.1 3.6c-0.1 0-1.3 10.8 2.3 11.2 15.1-2.7 16.1-17.1 17.4-31.3 0 0-21.1 13.6-19.6 16.5z"/>
					<path id="&lt;Path&gt;" class="s8" d="m474.7 85.8c0 0-3.7 35.1 18.1 41.2 21.9 6 27.1-29.6 26.3-41.9-0.7-12.3-6.2-16.9-21.5-17.4-22.6-0.9-22.9 18.1-22.9 18.1z"/>
					<path id="&lt;Path&gt;" class="s4" d="m494.3 102.8c0.1 1.2-0.5 2.3-1.3 2.3-0.9 0.1-1.6-0.9-1.6-2.2-0.1-1.3 0.5-2.3 1.3-2.4 0.8 0 1.5 1 1.6 2.3z"/>
					<path id="&lt;Path&gt;" class="s3" d="m496.7 96.3c0 0-7.2 3.1-7.9-2.3"/>
					<path id="&lt;Path&gt;" class="s3" d="m480 96.3c0 0-2.4 4.1-5.1 2.3"/>
					<path id="&lt;Path&gt;" class="s3" d="m476.2 103.6c0 0 1.3-0.4 3.3 0.7"/>
					<path id="&lt;Path&gt;" class="s3" d="m497.6 116.8c0 0 1.9-1.9 3.6-2.4"/>
					<path id="&lt;Path&gt;" class="s3" d="m482.8 107.7c0 0-1.2 2.8 1.9 4.2"/>
					<path id="&lt;Path&gt;" class="s4" d="m474.4 93.3c0 0 0.4-10.3 5-16.1 0 0 6.2 14.3 33.2 17.2l7.9-1.7c0 0 3.2-16.5-8.1-23-11.2-6.5-28.5-2.9-34.1 3-9.4 9.9-3.9 20.6-3.9 20.6z"/>
					<path id="&lt;Path&gt;" class="s4" d="m507.4 92.5l4.7 9.2 3.3-10.3z"/>
					<path id="&lt;Path&gt;" class="s8" d="m523.7 100.8c-1.3 4.9-5.2 8.1-8.6 7.2-3.4-0.9-5.1-5.6-3.8-10.5 1.4-4.9 5.3-8.2 8.7-7.3 3.4 0.9 5.1 5.7 3.7 10.6z"/>
					<path id="&lt;Path&gt;" class="s17" d="m520.3 96.5c0 0-3.8-3.3-5.9 2.7 0 0 2.2 2.4 0.8 4.3 0 0 2.2 0.5 3.3-1.5"/>
					<path id="&lt;Path&gt;" class="s17" d="m518.6 98.8c0 0-0.2-1.3-1.7-2.9"/>
					<path id="&lt;Path&gt;" class="s12" d="m520.5 107.9c0 1.8-1.5 3.3-3.3 3.3-1.9 0-3.4-1.5-3.4-3.3 0-1.9 1.5-3.4 3.4-3.4 1.8 0 3.3 1.5 3.3 3.4z"/>
					<path id="&lt;Path&gt;" class="s4" d="m511.2 74c0 0 4.1-21.4 13.6-17.3 9.6 4.1 13.9 24.6 4.8 26.2-9.1 1.6-16.2-2.7-16.2-2.7z"/>
					<path id="&lt;Path&gt;" class="s3" d="m511.3 80.2c0 0 15.8 13.2 20.9 1"/>
				</g>
			</g>
			<path id="&lt;Path&gt;" class="s11" d="m571.2 267.3l-18.4-10.4"/>
		</g>
		<g id="&lt;Group&gt;">
			<path id="&lt;Path&gt;" class="s16" d="m154.8 131.3c19.8 0.6 36.2 16.4 37.3 36.2 0.7 11.7-3.8 22.3-11.4 29.7-1.1 1.2-1.6 2.7-1.4 4.3l2.9 16.9-17.6-10.3c-1-0.6-2.1-0.8-3.3-0.5-4.3 0.8-8.8 1-13.5 0.3-17.3-2.6-30.8-17-32.4-34.4-2.2-23.3 16.4-42.8 39.4-42.2z"/>
			<g id="&lt;Group&gt;">
				<path id="&lt;Compound Path&gt;" class="s4" d="m152 183.1l-0.2-9.2q2.1-0.4 3.7-1.2 1.7-0.8 2.9-1.9 1.3-1 2.1-2.3 0.9-1.3 1.3-2.7 0.4-1.5 0.4-3.1 0-2.4-1.1-4.4-1.1-2.1-3.3-3.4-2.1-1.3-5-1.3-3.2 0-5.9 1.8-2.7 1.7-4.1 5.9l-1-0.6q1.3-4 4.2-6.1 3-2.2 6.7-2.2 3.2 0 5.7 1.4 2.4 1.4 3.7 3.7 1.4 2.3 1.4 5.2 0 2.1-0.7 4.1-0.8 1.9-2.1 3.4-1.3 1.6-3.2 2.8-2 1.2-4.3 1.8l-0.2 8.3zm-0.6 6.9q0-0.7 0.4-1.2 0.4-0.4 1-0.4 0.8 0 1.1 0.4 0.3 0.4 0.3 1.2 0 0.7-0.3 1.2-0.4 0.4-1.1 0.4-0.7 0-1.1-0.4-0.3-0.4-0.3-1.2z"/>
			</g>
		</g>
		<path id="&lt;Path&gt;" class="s11" d=""/>
	</g>
</svg>